# xmcd
#
# Track frame offsets:
#	150
#	24830
#	49653
#	82379
#	94134
#	118915
#	136810
#	157164
#	174290
#	194916
#	216754
#	237996
#	256501
#	275507
#	296220
#	314335
#
# Disc length: 4460 seconds
#
# Revision: 0
# Processed by: cddbd v1.5.2PL0 Copyright (c) Steve Scherf et al.
# Submitted via: EasyCDDAExtractor 10.0.2.1
#
DISCID=ef116a10
DTITLE=Various Artist - 4 Smooth Steppers
DYEAR=2007
DGENRE=R&B
TTITLE0=The Escorts - Something About The Way You Love Me
TTITLE1=Grayson Hugh - Finally Found A Friend
TTITLE2=Movement - More Love (DJ Vell Ext)
TTITLE3=The Joy Tones - This Love
TTITLE4=Tina Marie - Young Love
TTITLE5=The Temptations - Heavenly
TTITLE6=The Isley Brothers - I Once HAd Your Love
TTITLE7=Rufus w/Chaka Khan - Best Of Your Heart
TTITLE8=Heatwave - Sho Nuff Must Be Love
TTITLE9=Spider Turner - U Keep Me Wondering
TTITLE10=Curtis Mayfield - Hey Baby
TTITLE11=The Whispers - Living Together In Sin
TTITLE12=Veronica - Hypotized
TTITLE13=Switch - Calling On All Girls
TTITLE14=Ron Banks - Make It Easy On Yourself
TTITLE15=Mansfield's Revenge/Marcell and The Truths - Hopes Too High
EXTD=
EXTT0=
EXTT1=
EXTT2=
EXTT3=
EXTT4=
EXTT5=
EXTT6=
EXTT7=
EXTT8=
EXTT9=
EXTT10=
EXTT11=
EXTT12=
EXTT13=
EXTT14=
EXTT15=
PLAYORDER=
